<svg xmlns="http://www.w3.org/2000/svg" version="1.1" xmlns:xlink="http://www.w3.org/1999/xlink" xmlns:svgjs="http://svgjs.com/svgjs" width="1440" height="560" preserveAspectRatio="none" viewBox="0 0 1440 560"><g mask="url(&quot;#SvgjsMask1000&quot;)" fill="none"><rect width="1440" height="560" x="0" y="0" fill="#0e2a47"></rect><path d="M116.64 76.06L181.6 113.56L181.6 188.56L116.64 226.06L51.69 188.56L51.69 113.56zM51.69 413.56L116.64 451.06L116.64 526.06L51.69 563.56L-13.26 526.06L-13.26 451.06zM246.55 301.06L311.5 338.56L311.5 413.56L246.55 451.06L181.6 413.56L181.6 338.56zM1285.81 301.06L1350.76 338.56L1350.76 413.56L1285.81 451.06L1220.86 413.56L1220.86 338.56zM1480.67 188.56L1545.63 226.06L1545.63 301.06L1480.67 338.56L1415.72 301.06L1415.72 226.06z" stroke="#03305d" stroke-width="2"></path><path d="M109.14 76.06 a7.5 7.5 0 1 0 15 0 a7.5 7.5 0 1 0 -15 0zM174.1 113.56 a7.5 7.5 0 1 0 15 0 a7.5 7.5 0 1 0 -15 0zM174.1 188.56 a7.5 7.5 0 1 0 15 0 a7.5 7.5 0 1 0 -15 0zM109.14 226.06 a7.5 7.5 0 1 0 15 0 a7.5 7.5 0 1 0 -15 0zM44.19 188.56 a7.5 7.5 0 1 0 15 0 a7.5 7.5 0 1 0 -15 0zM44.19 113.56 a7.5 7.5 0 1 0 15 0 a7.5 7.5 0 1 0 -15 0zM44.19 413.56 a7.5 7.5 0 1 0 15 0 a7.5 7.5 0 1 0 -15 0zM109.14 451.06 a7.5 7.5 0 1 0 15 0 a7.5 7.5 0 1 0 -15 0zM109.14 526.06 a7.5 7.5 0 1 0 15 0 a7.5 7.5 0 1 0 -15 0zM44.19 563.56 a7.5 7.5 0 1 0 15 0 a7.5 7.5 0 1 0 -15 0zM-20.76 526.06 a7.5 7.5 0 1 0 15 0 a7.5 7.5 0 1 0 -15 0zM-20.76 451.06 a7.5 7.5 0 1 0 15 0 a7.5 7.5 0 1 0 -15 0zM239.05 301.06 a7.5 7.5 0 1 0 15 0 a7.5 7.5 0 1 0 -15 0zM304 338.56 a7.5 7.5 0 1 0 15 0 a7.5 7.5 0 1 0 -15 0zM304 413.56 a7.5 7.5 0 1 0 15 0 a7.5 7.5 0 1 0 -15 0zM239.05 451.06 a7.5 7.5 0 1 0 15 0 a7.5 7.5 0 1 0 -15 0zM174.1 413.56 a7.5 7.5 0 1 0 15 0 a7.5 7.5 0 1 0 -15 0zM174.1 338.56 a7.5 7.5 0 1 0 15 0 a7.5 7.5 0 1 0 -15 0zM1278.31 301.06 a7.5 7.5 0 1 0 15 0 a7.5 7.5 0 1 0 -15 0zM1343.26 338.56 a7.5 7.5 0 1 0 15 0 a7.5 7.5 0 1 0 -15 0zM1343.26 413.56 a7.5 7.5 0 1 0 15 0 a7.5 7.5 0 1 0 -15 0zM1278.31 451.06 a7.5 7.5 0 1 0 15 0 a7.5 7.5 0 1 0 -15 0zM1213.36 413.56 a7.5 7.5 0 1 0 15 0 a7.5 7.5 0 1 0 -15 0zM1213.36 338.56 a7.5 7.5 0 1 0 15 0 a7.5 7.5 0 1 0 -15 0zM1473.17 188.56 a7.5 7.5 0 1 0 15 0 a7.5 7.5 0 1 0 -15 0zM1538.13 226.06 a7.5 7.5 0 1 0 15 0 a7.5 7.5 0 1 0 -15 0zM1538.13 301.06 a7.5 7.5 0 1 0 15 0 a7.5 7.5 0 1 0 -15 0zM1473.17 338.56 a7.5 7.5 0 1 0 15 0 a7.5 7.5 0 1 0 -15 0zM1408.22 301.06 a7.5 7.5 0 1 0 15 0 a7.5 7.5 0 1 0 -15 0zM1408.22 226.06 a7.5 7.5 0 1 0 15 0 a7.5 7.5 0 1 0 -15 0z" fill="#03305d"></path><path d="M92.99 35.51L136.3 60.51L136.3 110.51L92.99 135.51L49.69 110.51L49.69 60.51zM92.99 335.51L136.3 360.51L136.3 410.51L92.99 435.51L49.69 410.51L49.69 360.51zM49.69 410.51L92.99 435.51L92.99 485.51L49.69 510.51L6.39 485.51L6.39 435.51zM136.3 -39.49L179.6 -14.49L179.6 35.51L136.3 60.51L92.99 35.51L92.99 -14.49zM179.6 35.51L222.9 60.51L222.9 110.51L179.6 135.51L136.3 110.51L136.3 60.51zM136.3 260.51L179.6 285.51L179.6 335.51L136.3 360.51L92.99 335.51L92.99 285.51zM222.9 -39.49L266.2 -14.49L266.2 35.51L222.9 60.51L179.6 35.51L179.6 -14.49zM266.2 35.51L309.5 60.51L309.5 110.51L266.2 135.51L222.9 110.51L222.9 60.51zM222.9 110.51L266.2 135.51L266.2 185.51L222.9 210.51L179.6 185.51L179.6 135.51zM222.9 260.51L266.2 285.51L266.2 335.51L222.9 360.51L179.6 335.51L179.6 285.51zM266.2 335.51L309.5 360.51L309.5 410.51L266.2 435.51L222.9 410.51L222.9 360.51zM352.81 185.51L396.11 210.51L396.11 260.51L352.81 285.51L309.5 260.51L309.5 210.51zM352.81 485.51L396.11 510.51L396.11 560.51L352.81 585.51L309.5 560.51L309.5 510.51zM439.41 185.51L482.72 210.51L482.72 260.51L439.41 285.51L396.11 260.51L396.11 210.51zM439.41 335.51L482.72 360.51L482.72 410.51L439.41 435.51L396.11 410.51L396.11 360.51zM396.11 410.51L439.41 435.51L439.41 485.51L396.11 510.51L352.81 485.51L352.81 435.51zM439.41 485.51L482.72 510.51L482.72 560.51L439.41 585.51L396.11 560.51L396.11 510.51zM482.72 110.51L526.02 135.51L526.02 185.51L482.72 210.51L439.41 185.51L439.41 135.51zM482.72 410.51L526.02 435.51L526.02 485.51L482.72 510.51L439.41 485.51L439.41 435.51zM569.32 -39.49L612.62 -14.49L612.62 35.51L569.32 60.51L526.02 35.51L526.02 -14.49zM612.62 35.51L655.92 60.51L655.92 110.51L612.62 135.51L569.32 110.51L569.32 60.51zM569.32 110.51L612.62 135.51L612.62 185.51L569.32 210.51L526.02 185.51L526.02 135.51zM612.62 335.51L655.92 360.51L655.92 410.51L612.62 435.51L569.32 410.51L569.32 360.51zM655.92 110.51L699.23 135.51L699.23 185.51L655.92 210.51L612.62 185.51L612.62 135.51zM699.23 185.51L742.53 210.51L742.53 260.51L699.23 285.51L655.92 260.51L655.92 210.51zM699.23 485.51L742.53 510.51L742.53 560.51L699.23 585.51L655.92 560.51L655.92 510.51zM785.83 35.51L829.13 60.51L829.13 110.51L785.83 135.51L742.53 110.51L742.53 60.51zM742.53 260.51L785.83 285.51L785.83 335.51L742.53 360.51L699.23 335.51L699.23 285.51zM785.83 335.51L829.13 360.51L829.13 410.51L785.83 435.51L742.53 410.51L742.53 360.51zM829.13 -39.49L872.44 -14.49L872.44 35.51L829.13 60.51L785.83 35.51L785.83 -14.49zM872.44 35.51L915.74 60.51L915.74 110.51L872.44 135.51L829.13 110.51L829.13 60.51zM829.13 260.51L872.44 285.51L872.44 335.51L829.13 360.51L785.83 335.51L785.83 285.51zM872.44 335.51L915.74 360.51L915.74 410.51L872.44 435.51L829.13 410.51L829.13 360.51zM829.13 410.51L872.44 435.51L872.44 485.51L829.13 510.51L785.83 485.51L785.83 435.51zM872.44 485.51L915.74 510.51L915.74 560.51L872.44 585.51L829.13 560.51L829.13 510.51zM959.04 185.51L1002.35 210.51L1002.35 260.51L959.04 285.51L915.74 260.51L915.74 210.51zM1045.65 35.51L1088.95 60.51L1088.95 110.51L1045.65 135.51L1002.35 110.51L1002.35 60.51zM1002.35 110.51L1045.65 135.51L1045.65 185.51L1002.35 210.51L959.04 185.51L959.04 135.51zM1002.35 260.51L1045.65 285.51L1045.65 335.51L1002.35 360.51L959.04 335.51L959.04 285.51zM1132.25 35.51L1175.56 60.51L1175.56 110.51L1132.25 135.51L1088.95 110.51L1088.95 60.51zM1132.25 185.51L1175.56 210.51L1175.56 260.51L1132.25 285.51L1088.95 260.51L1088.95 210.51zM1088.95 260.51L1132.25 285.51L1132.25 335.51L1088.95 360.51L1045.65 335.51L1045.65 285.51zM1088.95 410.51L1132.25 435.51L1132.25 485.51L1088.95 510.51L1045.65 485.51L1045.65 435.51zM1175.56 110.51L1218.86 135.51L1218.86 185.51L1175.56 210.51L1132.25 185.51L1132.25 135.51zM1218.86 185.51L1262.16 210.51L1262.16 260.51L1218.86 285.51L1175.56 260.51L1175.56 210.51zM1175.56 260.51L1218.86 285.51L1218.86 335.51L1175.56 360.51L1132.25 335.51L1132.25 285.51zM1175.56 410.51L1218.86 435.51L1218.86 485.51L1175.56 510.51L1132.25 485.51L1132.25 435.51zM1218.86 485.51L1262.16 510.51L1262.16 560.51L1218.86 585.51L1175.56 560.51L1175.56 510.51zM1262.16 -39.49L1305.46 -14.49L1305.46 35.51L1262.16 60.51L1218.86 35.51L1218.86 -14.49zM1305.46 185.51L1348.77 210.51L1348.77 260.51L1305.46 285.51L1262.16 260.51L1262.16 210.51zM1262.16 260.51L1305.46 285.51L1305.46 335.51L1262.16 360.51L1218.86 335.51L1218.86 285.51zM1305.46 485.51L1348.77 510.51L1348.77 560.51L1305.46 585.51L1262.16 560.51L1262.16 510.51zM1392.07 185.51L1435.37 210.51L1435.37 260.51L1392.07 285.51L1348.77 260.51L1348.77 210.51zM1392.07 485.51L1435.37 510.51L1435.37 560.51L1392.07 585.51L1348.77 560.51L1348.77 510.51zM1478.67 35.51L1521.98 60.51L1521.98 110.51L1478.67 135.51L1435.37 110.51L1435.37 60.51zM1478.67 185.51L1521.98 210.51L1521.98 260.51L1478.67 285.51L1435.37 260.51L1435.37 210.51zM1478.67 335.51L1521.98 360.51L1521.98 410.51L1478.67 435.51L1435.37 410.51L1435.37 360.51zM1435.37 410.51L1478.67 435.51L1478.67 485.51L1435.37 510.51L1392.07 485.51L1392.07 435.51z" stroke="rgba(6, 80, 156, 0.93)" stroke-width="2"></path></g><defs><mask id="SvgjsMask1000"><rect width="1440" height="560" fill="#ffffff"></rect></mask></defs></svg>